<svg width="86" height="43" viewBox="0 0 86 43" fill="none" xmlns="http://www.w3.org/2000/svg">
<g clip-path="url(#clip0_1410_400)">
<path d="M77.1974 31.6807C77.1974 28.4392 79.8247 25.8115 83.0656 25.8114V1.90129C83.0656 0.851242 82.2145 0 81.1646 0H1.90101C0.851102 0 0 0.851242 0 1.90129V41.0987C0 42.1488 0.851102 43 1.90101 43H81.1646C82.2145 43 83.0656 42.1488 83.0656 41.0987V37.55C79.8247 37.5499 77.1974 34.9222 77.1974 31.6807Z" fill="#46BC96"/>
<path d="M83.0658 34.6154C84.6863 34.6154 86 33.3015 86 31.6807C86 30.06 84.6863 28.7461 83.0658 28.7461C81.4453 28.7461 80.1316 30.06 80.1316 31.6807C80.1316 33.3015 81.4453 34.6154 83.0658 34.6154Z" fill="#46BC96"/>
<path d="M60.7946 21.5H58.3917C58.1292 21.5 57.9164 21.7128 57.9164 21.9753V33.8049C57.9164 34.0674 58.1292 34.2803 58.3917 34.2803H60.7946C61.0571 34.2803 61.2698 34.0674 61.2698 33.8049V21.9753C61.2698 21.7128 61.0571 21.5 60.7946 21.5Z" fill="white"/>
<path d="M75.8175 18.3451L60.5788 20.4874C59.9837 18.9498 59.0012 17.719 57.6415 16.8051C55.9548 15.6749 53.7333 15.1014 51.0374 15.1014C47.7551 15.1014 44.9095 16.4074 43.1894 17.732C42.9719 17.8995 42.9365 18.2133 43.1154 18.4215L44.3984 19.9143C44.7113 20.2783 45.2488 20.3604 45.6477 20.0933C46.8995 19.2551 48.8439 18.4551 51.0374 18.4551C53.1533 18.4551 55.7654 18.7804 57.0798 20.9804L46.9448 22.404C44.829 22.7008 43.1138 24.1563 42.4684 26.202C41.8313 28.2159 42.3896 30.3589 43.9236 31.7926C45.8417 33.5868 48.4353 34.6164 51.0374 34.6164C54.1123 34.6164 56.7193 33.6237 58.577 31.7473C60.3123 29.9934 61.2696 27.5469 61.2696 24.8589V24.5755C61.2696 24.3056 61.2629 24.0406 61.2478 23.7807L75.9498 21.7137C76.1844 21.6807 76.3589 21.48 76.3589 21.243V18.8158C76.3589 18.5269 76.1035 18.3049 75.8175 18.3451ZM57.9164 24.8589C57.9164 28.7475 55.2154 31.2627 51.0374 31.2627C49.277 31.2627 47.5182 30.5618 46.2122 29.3427C45.6237 28.7911 45.4175 27.9946 45.6656 27.2115C45.9221 26.3982 46.576 25.8432 47.4126 25.7258L57.9114 24.2502C57.9148 24.3558 57.9164 24.4648 57.9164 24.5755V24.8589Z" fill="white"/>
<path d="M40.5973 23.5157C41.2344 21.5002 40.6761 19.3588 39.1437 17.9235C37.224 16.1293 34.6303 15.1014 32.0283 15.1014C28.9534 15.1014 26.3463 16.0924 24.4886 17.9687C22.7534 19.7227 21.796 22.1692 21.796 24.8588V25.1405C21.796 25.4105 21.8044 25.6772 21.8178 25.9354L7.11584 28.0024C6.88124 28.0354 6.70676 28.2361 6.70676 28.4731V30.9003C6.70676 31.1891 6.96218 31.4112 7.24816 31.371L22.4868 29.2286C23.0836 30.7663 24.0645 31.9987 25.4258 32.9109C27.1125 34.0411 29.334 34.6163 32.0282 34.6163C35.3121 34.6163 38.1564 33.3089 39.8763 31.984C40.0937 31.8165 40.1292 31.5028 39.9503 31.2946L38.667 29.8015C38.3543 29.4377 37.8171 29.3558 37.4185 29.6229C36.1673 30.4615 34.2218 31.2627 32.0282 31.2627C29.9141 31.2627 27.3003 30.9357 25.9875 28.7373L36.1208 27.312C38.2367 27.0152 39.9518 25.5597 40.5973 23.5157ZM25.1542 25.4675C25.1509 25.3602 25.1492 25.2512 25.1492 25.1405V24.8588C25.1492 20.9686 27.8502 18.4551 32.0283 18.4551C33.7903 18.4551 35.5491 19.1543 36.8535 20.3733C37.4436 20.925 37.6482 21.7215 37.4 22.5046C37.1435 23.3179 36.4913 23.8729 35.6547 23.9919L25.1542 25.4675Z" fill="white"/>
<path d="M21.7966 8.88189C21.7966 8.60991 21.5684 8.39213 21.2969 8.4067C16.4439 8.66713 12.5758 12.6979 12.5758 17.6154L12.5758 33.8049C12.5758 34.0675 12.7886 34.2803 13.0511 34.2803H15.4537C15.7162 34.2803 15.929 34.0675 15.929 33.8049V17.6154C15.929 14.5287 18.324 11.991 21.3531 11.7636C21.6024 11.7448 21.7966 11.5413 21.7966 11.2913C21.7966 10.6613 21.7966 9.52888 21.7966 8.88189Z" fill="white"/>
<path d="M67.1378 10.9547V33.8049C67.1378 34.0674 67.3506 34.2803 67.6131 34.2803H70.0158C70.2782 34.2803 70.491 34.0674 70.491 33.8049V10.617C70.491 10.3281 70.2356 10.1061 69.9496 10.1463L67.547 10.484C67.3123 10.5169 67.1378 10.7177 67.1378 10.9547Z" fill="white"/>
</g>
<defs>
<clipPath id="clip0_1410_400">
<rect width="86" height="43" fill="white"/>
</clipPath>
</defs>
</svg>
